<svg viewBox="0 0 32 32" fill="none" xmlns="http://www.w3.org/2000/svg">
<path d="M2.66666 8.00002C3.46666 8.66669 4.26666 9.33335 6 9.33335C9.33333 9.33335 9.33333 6.66669 12.6667 6.66669C16.1333 6.66669 15.8667 9.33335 19.3333 9.33335C22.6667 9.33335 22.6667 6.66669 26 6.66669C27.7333 6.66669 28.5333 7.33335 29.3333 8.00002M2.66666 16C3.46666 16.6667 4.26666 17.3334 6 17.3334C9.33333 17.3334 9.33333 14.6667 12.6667 14.6667C16.1333 14.6667 15.8667 17.3334 19.3333 17.3334C22.6667 17.3334 22.6667 14.6667 26 14.6667C27.7333 14.6667 28.5333 15.3334 29.3333 16M2.66666 24C3.46666 24.6667 4.26666 25.3334 6 25.3334C9.33333 25.3334 9.33333 22.6667 12.6667 22.6667C16.1333 22.6667 15.8667 25.3334 19.3333 25.3334C22.6667 25.3334 22.6667 22.6667 26 22.6667C27.7333 22.6667 28.5333 23.3334 29.3333 24" stroke="currentColor" stroke-width="2.66667" stroke-linecap="round" stroke-linejoin="round"/>
</svg>
