<svg viewBox="0 0 20 20" fill="none" xmlns="http://www.w3.org/2000/svg">
<g clip-path="url(#clip0_5_51)">
<path d="M10 1.66669V3.33335M10 6.66669C8.42857 6.66589 7.07001 7.76271 6.73953 9.299C6.40905 10.8353 7.19642 12.3937 8.62917 13.0392M1.66667 10H3.33333M16.6667 12.1167C17.9732 12.871 18.6102 14.4089 18.2198 15.8662C17.8293 17.3234 16.5087 18.3368 15 18.3368C13.4913 18.3368 12.1707 17.3234 11.7802 15.8662C11.3898 14.4089 12.0268 12.871 13.3333 12.1167V3.33335C13.3333 2.4135 14.0801 1.66669 15 1.66669C15.9199 1.66669 16.6667 2.4135 16.6667 3.33335L10 1.66669M4.10833 4.10835L5.28333 5.28335M5.28333 14.7167L4.10833 15.8917" stroke="currentColor" stroke-width="1.66667" stroke-linecap="round" stroke-linejoin="round"/>
</g>
<defs>
<clipPath id="clip0_5_51">
<rect width="20" height="20" fill="white"/>
</clipPath>
</defs>
</svg>
