<svg viewBox="0 0 32 32" fill="none" xmlns="http://www.w3.org/2000/svg">
<path d="M16 2.66667V5.33334M6.57333 6.57334L8.45333 8.45334M26.6667 16H29.3333M25.4267 6.57334L23.5467 8.45334M21.2627 16.8667C21.5976 14.838 20.7364 12.7974 19.0493 11.622C17.3623 10.4466 15.1497 10.3457 13.3627 11.3627M4 26.6667C2.35956 24.4773 2.22321 21.5079 3.6561 19.1774C5.089 16.8469 7.80025 15.6284 10.4944 16.104C13.1885 16.5797 15.3185 18.6531 15.8667 21.3333H17.3333C18.9943 21.3309 20.484 22.3552 21.0763 23.907C21.6685 25.4588 21.2402 27.2151 20 28.32M14.6667 26.6667V29.3333M9.33333 25.3333V28" stroke="currentColor" stroke-width="2.66667" stroke-linecap="round" stroke-linejoin="round"/>
</svg>
