<svg viewBox="0 0 40 40" fill="none" xmlns="http://www.w3.org/2000/svg">
<path d="M3.4367 20.58C3.29779 20.2058 3.29779 19.7942 3.4367 19.42C6.2034 12.7115 12.7434 8.33435 20 8.33435C27.2566 8.33435 33.7967 12.7115 36.5634 19.42C36.7023 19.7942 36.7023 20.2058 36.5634 20.58C33.7967 27.2885 27.2566 31.6656 20 31.6656C12.7434 31.6656 6.2034 27.2885 3.4367 20.58" stroke="currentColor" stroke-width="3.33333" stroke-linecap="round" stroke-linejoin="round"/>
<path d="M15 20C15 22.7596 17.2404 25 20 25C22.7596 25 25 22.7596 25 20C25 17.2404 22.7596 15 20 15C17.2404 15 15 17.2404 15 20V20" stroke="currentColor" stroke-width="3.33333" stroke-linecap="round" stroke-linejoin="round"/>
</svg>
