<svg viewBox="0 0 32 32" fill="none" xmlns="http://www.w3.org/2000/svg">
<path d="M17.0667 26.1333C17.9949 26.8295 19.2667 26.8456 20.2122 26.1731C21.1577 25.5007 21.5599 24.294 21.207 23.1888C20.854 22.0835 19.8269 21.3333 18.6667 21.3333H2.66667M23.3333 10.6666C24.2739 9.41262 25.9611 8.98334 27.3865 9.63537C28.812 10.2874 29.5906 11.8446 29.2569 13.3762C28.9233 14.9078 27.5675 16 26 16H2.66667M13.0667 5.86665C13.9949 5.1705 15.2667 5.15441 16.2122 5.82685C17.1577 6.49929 17.5599 7.70592 17.207 8.81118C16.854 9.91644 15.8269 10.6666 14.6667 10.6666H2.66667" stroke="currentColor" stroke-width="2.66667" stroke-linecap="round" stroke-linejoin="round"/>
</svg>
